<?xml version="1.0" encoding="utf-8"?>
<!-- Generator: Adobe Illustrator 22.0.1, SVG Export Plug-In . SVG Version: 6.00 Build 0)  -->
<svg version="1.1" id="Layer_1" xmlns="http://www.w3.org/2000/svg" xmlns:xlink="http://www.w3.org/1999/xlink" x="0px" y="0px"
	 viewBox="0 0 87.5 87.4" style="enable-background:new 0 0 87.5 87.4;" xml:space="preserve">
<style type="text/css">
	.st0{fill:#E9E9E9;}
</style>
<title>addAsset 1</title>
<g id="Layer_2_1_">
	<g id="Layer_1-2">
		<path class="st0" d="M77.3,27.2c0.6,0.6,1.5,0.6,2.1,0c0,0,0,0,0,0l7.6-7.6c0.6-0.6,0.6-1.5,0.1-2c0,0,0,0-0.1-0.1L69.9,0.4
			c-0.6-0.6-1.5-0.6-2.1,0c0,0,0,0,0,0l-7.6,7.6c-0.6,0.6-0.6,1.5,0,2.1c0,0,0,0,0,0L77.3,27.2z"/>
		<path class="st0" d="M1.6,87.3l16.8-1.9c0.8-0.1,1.4-0.9,1.3-1.7c0-0.3-0.2-0.6-0.4-0.8L4.4,68.1c-0.6-0.6-1.5-0.6-2.1,0
			c-0.2,0.2-0.4,0.5-0.4,0.9L0,85.8c-0.1,0.8,0.5,1.5,1.3,1.6C1.4,87.4,1.5,87.4,1.6,87.3z"/>
		<path class="st0" d="M23.4,81.2c0.6,0.6,1.5,0.6,2,0.1c0,0,0,0,0.1-0.1l48.8-48.8c0.6-0.6,0.6-1.5,0.1-2c0,0,0,0-0.1-0.1
			L57.2,13.2c-0.6-0.6-1.5-0.6-2,0c0,0,0,0,0,0L6.3,62c-0.6,0.6-0.6,1.5,0,2.1c0,0,0,0,0,0L23.4,81.2z M12.3,62l42.8-42.8
			c0.6-0.6,1.5-0.6,2,0c0,0,0,0,0,0l1,1c0.6,0.6,0.6,1.5,0,2c0,0,0,0,0,0.1L15.4,65.1c-0.6,0.6-1.5,0.6-2.1,0.1c0,0,0,0-0.1-0.1
			l-1-1C12.1,63.6,12.6,62.8,12.3,62z"/>
	</g>
</g>
</svg>
