<?xml version="1.0" encoding="utf-8"?>
<!-- Generator: Adobe Illustrator 22.0.1, SVG Export Plug-In . SVG Version: 6.00 Build 0)  -->
<svg version="1.1" id="Layer_1" xmlns="http://www.w3.org/2000/svg" xmlns:xlink="http://www.w3.org/1999/xlink" x="0px" y="0px"
	 viewBox="0 0 28 33.6" style="enable-background:new 0 0 28 33.6;" xml:space="preserve">
<style type="text/css">
	.st0{fill:#E9E9E9;}
</style>
<title>homeAsset 1</title>
<g id="Layer_2_1_">
	<g id="Layer_1-2">
		<path class="st0" d="M19,32.6c0,0.6,0.4,1,1,1h7c0.6,0,1-0.4,1-1v-18c0-0.6-0.3-1.2-0.7-1.7L14.7,0.3c-0.4-0.4-1-0.4-1.4,0
			c0,0,0,0,0,0L0.7,12.9C0.3,13.3,0,13.9,0,14.6v18c0,0.6,0.4,1,1,1h7c0.6,0,1-0.4,1-1v-9c0-2.8,2.2-5,5-5l0,0c2.8,0,5,2.2,5,5V32.6
			z"/>
	</g>
</g>
</svg>
