<?xml version="1.0" encoding="utf-8"?>
<!-- Generator: Adobe Illustrator 22.1.0, SVG Export Plug-In . SVG Version: 6.00 Build 0)  -->
<svg version="1.1" id="Layer_1" xmlns="http://www.w3.org/2000/svg" xmlns:xlink="http://www.w3.org/1999/xlink" x="0px" y="0px"
	 viewBox="0 0 708.7 259.6" style="enable-background:new 0 0 708.7 259.6;" xml:space="preserve">
<style type="text/css">
	.st0{fill:#2A2A2A;}
</style>
<title>logosvgAsset 1</title>
<g>
	<path class="st0" d="M206,179.9h-29.9L147.9,141v38.9h-26.4V50.2h26.4v80.3l26.4-38.5h30.8l-32,44L206,179.9z"/>
	<path class="st0" d="M277.1,91.9h29.2l-32.6,88h-29.9l-32.6-88h29.2l18.3,55.8L277.1,91.9z"/>
	<path class="st0" d="M376.6,50.2h26.4v129.7c0,0-41.4,0-52.6,0c-11.6,0-21.5-4.4-29.7-13.4c-8.3-9-12.3-20.1-12.3-33.1
		c0-13,4-23.9,12.3-32.9c8.3-9,18.1-13.6,29.7-13.6c11.3,0,20.1,3.5,26.2,10.7V50.2z M355.7,154.9c6.2,0,20.7-0.2,20.7-0.2
		s0.2-14.7,0.2-21.2c0-6.5-1.9-11.8-5.8-15.7c-3.9-3.9-9-5.8-15.1-5.8s-11.3,1.9-15.1,5.8c-3.9,3.9-5.8,9.2-5.8,15.7
		c0,6.5,1.9,11.8,5.8,15.7C344.4,153,349.5,154.9,355.7,154.9z"/>
	<path class="st0" d="M509.2,87.7v89.8h-26.4v-8.3c-6.2,7.2-15,10.7-26.2,10.7c-11.6,0-21.5-4.4-29.7-13.4
		c-8.3-9-12.3-20.1-12.3-33.1c0-13,4-23.9,12.3-32.9c8.3-9,18.1-13.6,29.7-13.6C467.8,87,509.2,87.7,509.2,87.7z M461.8,154.9
		c6.2,0,11.3-1.9,15.1-5.8c3.9-3.9,5.8-9.2,5.8-15.7c0-6.5,0-21.5,0-21.5s-14.8,0-20.9,0c-6.2,0-11.3,1.9-15.1,5.8
		c-3.9,3.9-5.8,9.2-5.8,15.7c0,6.5,1.9,11.8,5.8,15.7C450.6,153,455.7,154.9,461.8,154.9z"/>
	<path class="st0" d="M527,74.5c-6.2-6.3-6.2-16.2,0-22.4c6.3-6.3,16.2-6.3,22.4,0c6.3,6.2,6.3,16,0,22.4
		C543.2,80.6,533.3,80.6,527,74.5z"/>
	<rect x="525" y="87" class="st0" width="26.4" height="92.9"/>
	<path class="st0" d="M567.3,179.9V47.4h26.4v132.6H567.3z"/>
	<path class="st0" d="M668.8,89.5H697l-30.1,85.4c-9.9,27.6-25.3,39.1-50.2,37.8V188c12.1,0,18-3.9,22-14.6l-35-84h29l19.5,53.9
		L668.8,89.5z"/>
	<path class="st0" d="M79.3,50.2h26.4v129.7c0,0-41.4,0-52.6,0c-11.6,0-21.5-4.4-29.7-13.4c-8.3-9-12.3-20.1-12.3-33.1
		c0-13,4-23.9,12.3-32.9c8.3-9,18.1-13.6,29.7-13.6c11.3,0,20.1,3.5,26.2,10.7V50.2z M58.3,154.9c6.2,0,20.7-0.2,20.7-0.2
		s0.2-14.7,0.2-21.2c0-6.5-1.9-11.8-5.8-15.7c-3.9-3.9-9-5.8-15.1-5.8s-11.3,1.9-15.1,5.8c-3.9,3.9-5.8,9.2-5.8,15.7
		c0,6.5,1.9,11.8,5.8,15.7C47.1,153,52.2,154.9,58.3,154.9z"/>
</g>
</svg>
