<?xml version="1.0" encoding="utf-8"?>
<!-- Generator: Adobe Illustrator 22.1.0, SVG Export Plug-In . SVG Version: 6.00 Build 0)  -->
<svg version="1.1" id="Layer_1" xmlns="http://www.w3.org/2000/svg" xmlns:xlink="http://www.w3.org/1999/xlink" x="0px" y="0px"
	 viewBox="0 0 708.7 259.6" style="enable-background:new 0 0 708.7 259.6;" xml:space="preserve">
<style type="text/css">
	.st0{fill:#333333;}
</style>
<title>logosvgAsset 1</title>
<g>
	
		<ellipse transform="matrix(1.659130e-02 -0.9999 0.9999 1.659130e-02 469.7685 545.7925)" class="st0" cx="512.3" cy="34.1" rx="15.6" ry="15.6"/>
	<path class="st0" d="M695,179.9c-2.3-0.9-11.8-1.5-27-2l27.4-102.6c0.7-2.5-0.4-5.1-2.5-6.5l-22.1-14c-1.6-1-3.6-0.3-4.3,1.4
		c-5.4,14.1-34.1,85.3-46.4,85.3c-7.1,0-1.9-51.1-0.1-64.5c0.4-2.9-1.4-5.7-4.3-6.5l-12.9-5.6c-1.5-0.4-3.1,0.4-3.5,1.9
		c-2.2,6.6-13.8,74.7-30.4,74.7c-13.3,0,6.2-97.1,11.4-128.5c0.5-2.9-1.6-5.5-4.4-6.4L556.8,1c-1.7-0.5-3.4,0.5-3.7,2.3
		C543.4,58,538.7,140.7,516,141.7c-10,0.4-3.2-48.3,0.1-64.9c0.6-3.1-1.3-6.1-4.4-6.8l-14-4.2c-1.5-0.4-3,0.5-3.5,2
		c-1.5,5.2-14.9,75.5-31.1,74c-8.6-0.8,3.3-53,7.1-69.5c0.7-3.1-1.1-6.1-4.1-7l-14.4-3.8c-1.7-0.5-3.4,0.7-3.7,2.4l-0.5,4.1
		c-33.5-14.4-52.5,15.5-58.8,40.7c-4.7,18.9-11.4,34.6-17.7,33c-6.4-1.6,12.2-102.1,16.8-125.2c0.6-2.9-1.1-5.7-3.8-6.7l-18-9.6
		c-1.7-0.6-3.5,0.5-3.8,2.3l-11,63.3c-24.9-16-44.1-7.7-55.6,9.4c-11.8,3.6-22.3,4.4-30.3,2.9c0-8.9-4.2-17.4-15.5-17.4
		c-18.7,0-17.5,22.5-11.2,26c-7.4,22.1-19.3,55-23.6,55c-5.4,0-2.2-44.2-1.2-57c0.2-2.1-0.8-4.1-2.6-5.3l-10.7-7.2
		c-1.7-1.1-4-0.2-4.5,1.8c-1.2,5.1-1.4,12.5-4.6,22.9c-3.1,10.3-17.5,44.9-30.3,44.9c-5.7,0-13-20.4-13.9-32.2c0-0.5,0.2-1,0.6-1.4
		c2.5-2,11.5-9.4,18.2-14.2c9.2-6.5,4-19.9,1.6-24.9c-0.5-1-1.8-1.3-2.7-0.7L137.3,89c-0.8,0.6-2-0.1-1.8-1.1l13.9-71.8
		c0.5-2.7-0.9-5.3-3.4-6.4l-18.4-8.1c-1.7-0.7-3.7,0.3-4,2.1c-5.9,34.7-18.1,147.5-33.9,138c-8.3-5,11-103.2,15.8-125
		c0.6-2.7-0.7-5.4-3.2-6.5L82.8,0.7c-1.7-0.8-3.8,0.2-4.1,2.1L67.7,65.7c-69-44.4-94.3,98.2-33,98c19.9-0.1,25.7-8,26.9-10.1
		c0.1-0.2,0.3-0.2,0.5-0.1c2.7,1.8,6,10.2,21.7,10.2c9.6,0,15.8-5.2,20-12.8c0.1-0.2,0.4-0.1,0.4,0.1l-0.3,2.7
		c-0.6,5.6,3.8,10,9.4,10h4.4c1.6,0,3-0.6,3.3-2.2l6.5-33.3c0.1-0.6,0.4-1.2,0.9-1.6l3.3-3.3c0.5-0.5,1.3-0.2,1.4,0.4
		c3.7,17.9,11.5,40,24.1,40c10.4,0,26.7-14.7,33.6-28.8c0.3-0.6,1.1-0.3,1.1,0.3c-0.4,17.5,7.8,28.5,20.3,28.5
		c21.1,0,41.3-46,50.4-69.9c9,0.9,16.9-0.2,23.3-2.1c0.7-0.2,1.3,0.5,1.1,1.2c-9.7,30.9-1.5,70.9,30.9,70.8
		c19-0.1,25.2-7.4,26.7-9.8c0.2-0.3,0.6-0.2,0.7,0.1c1,2.5,5.1,9.4,19.6,9.7c10,0.2,17.4-7.9,22.9-17.8c0.4-0.7,1.3-0.7,1.7,0
		c5.9,10.3,15.9,17.8,30.4,17.8c13.3,0,20.8-8.5,23.2-11.7c0.4-0.5,1.2-0.5,1.6,0c2.1,3.3,8.3,11.7,16.6,11.7
		c11.8,0,20-10.9,24.5-25c0.2-0.6,1-0.6,1.2,0c3.6,14.1,11.4,25,29.2,25c7.4,0,18-8.4,21.9-18.7c0.2-0.6,1-0.6,1.3,0
		c4.5,10.4,12.8,18.8,25.8,18.8c10.3,0,23.6-12.3,29.2-24.4c0.5-1,1.9-0.8,2.1,0.3c2.2,12.4,2.8,24.1,16,24.1
		c17.5,0,29.8-14.8,35.8-23.8c0.7-1.1,2.4-0.4,2.1,0.9l-8.8,36.6c-144.4-1.3-541.2-4.2-630.2,28.4c-1.6,0.6-2.4,2.4-1.7,4l2.7,6.3
		c0.5,1.2,1.8,2,3.1,1.8c29.5-3.6,349.8-26.8,618.6-9l12.6,0.7c0.7,0,0.8,1.1,0.1,1.2c-5.4,1-10.1,2.8-13.7,5.2l-10.4,40.2
		c-0.4,1.9,1.1,3.6,3,3.3l19.3-2.6c1.1-0.1,2-0.9,2.3-2l11.8-44.1c14.9,1.2,29.7,2.6,44.2,4.2c2.3,0.2,4.4-1.3,4.7-3.6
		C709.3,203.4,710,185.8,695,179.9z M37,140.8C13.1,142.3,25.6,58.3,64.3,80c0.5,0.3,0.7,0.8,0.7,1.3C64.3,88.6,59.4,139.5,37,140.8
		z M320.3,140.8c-23.9,1.5-11.4-82.5,27.2-60.8c0.5,0.3,0.7,0.8,0.7,1.3C347.7,88.6,342.7,139.5,320.3,140.8z M419.4,140.8
		c-21.7,0-10.8-72.7,23.8-58.6c0.6,0.2,0.9,0.8,0.8,1.4C442.9,91.5,435.4,140.8,419.4,140.8z"/>
</g>
</svg>
